<svg viewBox="0 0 24 24" xmlns="http://www.w3.org/2000/svg" role="img" aria-hidden="true" class="_1rks9rr1 ejccx3g9 ejccx3u ejccx3g9 ejccx3u"><g color="neutralIconDefault"><g color="currentColor"><path fill="currentColor" d="M13 11a1 1 0 1 1-2 0 1 1 0 0 1 2 0M17 11a1 1 0 1 1-2 0 1 1 0 0 1 2 0M9 11a1 1 0 1 1-2 0 1 1 0 0 1 2 0"></path><path fill="currentColor" fill-rule="evenodd" d="M5.323 15.26v3.625l3.308-1.65.588.195c.294.097 1.185.34 2.781.34 4.999 0 8.5-3.244 8.5-6.634S16.999 4.5 12 4.5s-8.5 3.245-8.5 6.636c0 1.34.515 2.616 1.457 3.702zm3.423 3.593c.45.15 1.502.418 3.254.418 5.523 0 10-3.642 10-8.135S17.523 3 12 3 2 6.642 2 11.136c0 1.744.675 3.36 1.823 4.684v4.682a.5.5 0 0 0 .724.447z" clip-rule="evenodd"></path></g></g></svg>