<svg viewBox="0 0 24 24" xmlns="http://www.w3.org/2000/svg" class="kirk-icon" role="img" aria-hidden="true" style="height: var(--_1gzv7bh3j); width: var(--_1gzv7bh3j); fill: var(--_1gzv7bhc);"><g color="var(--_1gzv7bhc)"><path fill="currentColor" fill-rule="evenodd" d="M4.1865 3.64604c-.89101.4455-1.25175.96845-1.25175 1.39741s.36074.95191 1.25175 1.39741c.8611.43055 2.08569.71128 3.46564.71128 1.37996 0 2.60456-.28073 3.46566-.71128.891-.4455 1.2517-.96845 1.2517-1.39741s-.3607-.95191-1.2517-1.39741c-.8611-.43056-2.0857-.71129-3.46566-.71129-1.37995 0-2.60454.28073-3.46564.71129Zm-.44721-.89443c1.02722-.51361 2.41132-.81686 3.91285-.81686 1.50154 0 2.88566.30325 3.91286.81686.9973.49866 1.8045 1.28005 1.8045 2.29184 0 .01241-.0001.02478-.0003.03711.0002.00638.0003.01279.0003.01923v3.42172c0 .31775-.0796.61278-.2197.88346.9171-.32756 2.0213-.51367 3.1977-.51367 1.5015 0 2.8856.30324 3.9128.81685.9973.49865 1.8045 1.28005 1.8045 2.29185 0 .022-.0003.0439-.0011.0657.0008.0113.0011.0226.0011.0341v3.3783c0 .0225-.0004.045-.0011.0673.0007.0115.0011.0231.0011.0349v3.3763c0 1.0118-.8071 1.7932-1.8044 2.2918-1.0272.5136-2.4113.8168-3.9129.8168-1.5017 0-2.8858-.3032-3.913-.8168-.9973-.4986-1.8044-1.28-1.8044-2.2918v-.8116c-.8694.2823-1.88915.4417-2.97796.4417-1.50164 0-2.88575-.3032-3.91295-.8168-.99732-.4986-1.80444-1.28-1.80444-2.2918v-3.3783c0-.0114.00039-.0228.00114-.034-.00075-.0218-.00114-.0437-.00114-.0658V8.6203c0-.01133.00038-.02257.00112-.0337-.00074-.02159-.00112-.04329-.00112-.06509V5.09979c0-.00644.00013-.01285.00037-.01923-.00025-.01233-.00037-.0247-.00037-.03711 0-1.01179.80722-1.79318 1.80454-2.29184ZM21.0648 13.788c-.2421.1909-.5153.3592-.8045.5038-1.0272.5136-2.4113.8169-3.9128.8169-1.5016 0-2.8857-.3033-3.9129-.8169-.2892-.1446-.5624-.3129-.8045-.5038v1.6901c0 .429.3607.9519 1.2516 1.3974.8611.4305 2.0857.7112 3.4658.7112 1.38 0 2.6046-.2807 3.4657-.7112.8909-.4455 1.2516-.9684 1.2516-1.3974V13.788Zm-10.4336-1.7223c-.0008-.0218-.0011-.0437-.0011-.0657 0-.3177.0796-.6127.2197-.8834-.91707.3275-2.0213.5136-3.19766.5136-1.50164 0-2.88575-.3032-3.91295-.8168-.28914-.1446-.5623-.3129-.80444-.5037V12c0 .4291.36072.952 1.25165 1.3975.86106.4305 2.08565.7112 3.46574.7112 1.13906 0 2.16663-.192 2.97796-.5028v-1.5061c0-.0115.0004-.0228.0011-.0341Zm9.6292 5.7042c.2892-.1445.5623-.3129.8044-.5037v1.6904c0 .429-.3607.9519-1.2516 1.3974-.8611.4305-2.0857.7112-3.4657.7112-1.3801 0-2.6047-.2807-3.4658-.7112-.8909-.4455-1.2516-.9684-1.2516-1.3974v-1.6904c.2421.1908.5153.3592.8044.5037 1.0272.5136 2.4113.8168 3.913.8168 1.5016 0 2.8857-.3032 3.9129-.8168Zm-9.6303-2.2918c0 .0225.0004.045.0012.0673-.0008.0115-.0012.0231-.0012.0349v1.5046c-.81055.3104-1.83866.5018-2.97796.5018-1.38009 0-2.60468-.2807-3.46574-.7112-.89093-.4455-1.25165-.9684-1.25165-1.3974v-1.6899c.24214.1908.5153.3592.80444.5037 1.0272.5136 2.41131.8168 3.91295.8168 1.08921 0 2.10852-.16 2.97796-.4426v.812Zm.9349-8.14281c.2892-.14459.5624-.31294.8045-.5038v1.69002c0 .42905-.3607.95199-1.2516 1.39746-.8611.43053-2.08566.71123-3.46576.71123-1.38009 0-2.60468-.2807-3.46574-.71123-.89093-.44547-1.25165-.96841-1.25165-1.39746V6.83149c.24217.19086.51536.35921.80454.5038 1.02722.51361 2.41132.81685 3.91285.81685 1.50154 0 2.88566-.30324 3.91286-.81685ZM11.6301 12c0-.429.3607-.9519 1.2517-1.3974.8611-.4306 2.0857-.7113 3.4657-.7113 1.3799 0 2.6045.2807 3.4656.7113.891.4455 1.2517.9684 1.2517 1.3974 0 .4289-.3607.9519-1.2517 1.3974-.8611.4306-2.0857.7113-3.4656.7113-1.38 0-2.6046-.2807-3.4657-.7113-.891-.4455-1.2517-.9685-1.2517-1.3974Z" clip-rule="evenodd"></path></g></svg>