<svg viewBox="0 0 24 24" xmlns="http://www.w3.org/2000/svg" role="img" aria-hidden="true" class="_1rks9rr1 ejccx3g9 ejccx3u ejccx3g9 ejccx3u"><g color="neutralIconDefault"><g color="currentColor"><path fill="currentColor" fill-rule="evenodd" d="M9 2h12a1 1 0 0 1 1 1v13a3.75 3.75 0 1 1-1.5-3V7h-11v11.25a3.75 3.75 0 1 1-1.5-3V3a1 1 0 0 1 1-1m.5 1.5v2h11v-2zm11 12.5a2.25 2.25 0 1 0-4.5 0 2.25 2.25 0 0 0 4.5 0M5.75 16A2.25 2.25 0 0 1 8 18.249v.001A2.25 2.25 0 1 1 5.75 16" clip-rule="evenodd"></path></g></g></svg>