<svg viewBox="0 0 24 24" xmlns="http://www.w3.org/2000/svg" role="img" aria-hidden="true" class="_1rks9rr1 ejccx3g9 ejccx3u ejccx3g9 ejccx3u"><g color="neutralIconDefault" mask="url(#:r1l:)"><g color="currentColor"><path fill="currentColor" d="M13 11a1 1 0 1 1-2 0 1 1 0 0 1 2 0M17 11a1 1 0 1 1-2 0 1 1 0 0 1 2 0M9 11a1 1 0 1 1-2 0 1 1 0 0 1 2 0"></path><path fill="currentColor" fill-rule="evenodd" d="M5.323 15.26v3.625l3.308-1.65.588.195c.294.097 1.185.34 2.781.34 4.999 0 8.5-3.244 8.5-6.634S16.999 4.5 12 4.5s-8.5 3.245-8.5 6.636c0 1.34.515 2.616 1.457 3.702zm3.423 3.593c.45.15 1.502.418 3.254.418 5.523 0 10-3.642 10-8.135S17.523 3 12 3 2 6.642 2 11.136c0 1.744.675 3.36 1.823 4.684v4.682a.5.5 0 0 0 .724.447z" clip-rule="evenodd"></path></g></g><g color="var(--_1gzv7bhc)"><path fill="currentColor" fill-rule="evenodd" d="M21.5303 21.5303c-.2929.2929-.7677.2929-1.0606 0L2.46967 3.53033c-.29289-.29289-.29289-.76777 0-1.06066s.76777-.29289 1.06066 0L21.5303 20.4697c.2929.2929.2929.7677 0 1.0606Z" clip-rule="evenodd"></path></g><mask id=":r1l:"><path d="M0 3.51273e-05H32V32H0V3.51273e-05Z" fill="white"></path><path fill-rule="evenodd" clip-rule="evenodd" d="M0.87868 0.87868C2.05025 -0.292893 3.94975 -0.292893 5.12132 0.87868L31.1213 26.8787C32.2929 28.0503 32.2929 29.9497 31.1213 31.1213C29.9497 32.2929 28.0503 32.2929 26.8787 31.1213L0.87868 5.12132C-0.292893 3.94975 -0.292893 2.05025 0.87868 0.87868Z" fill="black"></path></mask></svg>