<svg viewBox="0 0 24 24" xmlns="http://www.w3.org/2000/svg" role="img" aria-hidden="true" class="_1rks9rr1 ejccx3g9 ejccx3u ejccx3g9 ejccx3u"><g color="neutralIconDefault" mask="url(#:rc:)"><g color="currentColor"><path fill="currentColor" fill-rule="evenodd" d="M9 2h12a1 1 0 0 1 1 1v13a3.75 3.75 0 1 1-1.5-3V7h-11v11.25a3.75 3.75 0 1 1-1.5-3V3a1 1 0 0 1 1-1m.5 1.5v2h11v-2zm11 12.5a2.25 2.25 0 1 0-4.5 0 2.25 2.25 0 0 0 4.5 0M5.75 16A2.25 2.25 0 0 1 8 18.249v.001A2.25 2.25 0 1 1 5.75 16" clip-rule="evenodd"></path></g></g><g color="var(--_1gzv7bhc)"><path fill="currentColor" fill-rule="evenodd" d="M21.5303 21.5303c-.2929.2929-.7677.2929-1.0606 0L2.46967 3.53033c-.29289-.29289-.29289-.76777 0-1.06066s.76777-.29289 1.06066 0L21.5303 20.4697c.2929.2929.2929.7677 0 1.0606Z" clip-rule="evenodd"></path></g><mask id=":rc:"><path d="M0 3.51273e-05H32V32H0V3.51273e-05Z" fill="white"></path><path fill-rule="evenodd" clip-rule="evenodd" d="M0.87868 0.87868C2.05025 -0.292893 3.94975 -0.292893 5.12132 0.87868L31.1213 26.8787C32.2929 28.0503 32.2929 29.9497 31.1213 31.1213C29.9497 32.2929 28.0503 32.2929 26.8787 31.1213L0.87868 5.12132C-0.292893 3.94975 -0.292893 2.05025 0.87868 0.87868Z" fill="black"></path></mask></svg>