<svg viewBox="0 0 24 24" xmlns="http://www.w3.org/2000/svg" role="img" aria-hidden="true" class="_1rks9rr1 ejccx3g9 ejccx3u ejccx3g9 ejccx3u"><g color="neutralIconDefault" mask="url(#:r1g:)"><g color="currentColor"><path fill="currentColor" fill-rule="evenodd" d="M8.75 4a2.75 2.75 0 1 1 .002 5.5A2.75 2.75 0 0 1 8.75 4M10 6.75a1.25 1.25 0 1 1-2.5 0 1.25 1.25 0 0 1 2.5 0M5.163 9.03A2.754 2.754 0 0 1 7.5 11.75a2.75 2.75 0 1 1-2.337-2.72M6 11.75a1.25 1.25 0 1 1-2.5 0 1.25 1.25 0 0 1 2.5 0M15.25 9.5a2.75 2.75 0 1 1-.002-5.5 2.75 2.75 0 0 1 .002 5.5m0-1.5a1.25 1.25 0 1 1 0-2.5 1.25 1.25 0 0 1 0 2.5M16.687 10.75A2.75 2.75 0 0 1 19.25 9a2.75 2.75 0 1 1-2.563 1.75M19.25 13a1.25 1.25 0 1 1 0-2.5 1.25 1.25 0 0 1 0 2.5M7.182 15.255l2.784-3.897a2.5 2.5 0 0 1 4.069 0l2.783 3.897c1.615 2.261-.446 5.313-3.147 4.66l-.73-.177a4 4 0 0 0-1.882 0l-.73.177c-2.7.654-4.762-2.399-3.147-4.66m1.22.872 2.784-3.897a1 1 0 0 1 1.628 0l2.783 3.897c.808 1.13-.223 2.657-1.573 2.33l-.73-.177a5.5 5.5 0 0 0-2.588 0l-.73.177c-1.35.327-2.38-1.2-1.573-2.33" clip-rule="evenodd"></path></g></g><g color="var(--_1gzv7bhc)"><path fill="currentColor" fill-rule="evenodd" d="M21.5303 21.5303c-.2929.2929-.7677.2929-1.0606 0L2.46967 3.53033c-.29289-.29289-.29289-.76777 0-1.06066s.76777-.29289 1.06066 0L21.5303 20.4697c.2929.2929.2929.7677 0 1.0606Z" clip-rule="evenodd"></path></g><mask id=":r1g:"><path d="M0 3.51273e-05H32V32H0V3.51273e-05Z" fill="white"></path><path fill-rule="evenodd" clip-rule="evenodd" d="M0.87868 0.87868C2.05025 -0.292893 3.94975 -0.292893 5.12132 0.87868L31.1213 26.8787C32.2929 28.0503 32.2929 29.9497 31.1213 31.1213C29.9497 32.2929 28.0503 32.2929 26.8787 31.1213L0.87868 5.12132C-0.292893 3.94975 -0.292893 2.05025 0.87868 0.87868Z" fill="black"></path></mask></svg>