<svg viewBox="0 0 24 24" xmlns="http://www.w3.org/2000/svg" role="img" aria-hidden="true" class="_1rks9rr1 ejccx3g9 ejccx3u ejccx3g9 ejccx3u"><g color="neutralIconDefault" mask="url(#:r14:)"><g color="currentColor"><path fill="currentColor" fill-rule="evenodd" d="M3.5 16.5v2h14v-2zM3 15a1 1 0 0 0-1 1v3a1 1 0 0 0 1 1h16v-5zM20.5 20v-5H22v5zM21.25 4v1.25a3.74 3.74 0 0 1-1.471 2.978A4.75 4.75 0 0 1 22 12.25v1.25h-1.5v-1.25A3.25 3.25 0 0 0 17.25 9H17V7.5h.5a2.25 2.25 0 0 0 2.25-2.25V4zM14 6.5a2.25 2.25 0 0 0 0 4.5h2.5a2.5 2.5 0 0 1 2.5 2.5h-1.5a1 1 0 0 0-1-1H14A3.75 3.75 0 1 1 14 5z" clip-rule="evenodd"></path></g></g><g color="var(--_1gzv7bhc)"><path fill="currentColor" fill-rule="evenodd" d="M21.5303 21.5303c-.2929.2929-.7677.2929-1.0606 0L2.46967 3.53033c-.29289-.29289-.29289-.76777 0-1.06066s.76777-.29289 1.06066 0L21.5303 20.4697c.2929.2929.2929.7677 0 1.0606Z" clip-rule="evenodd"></path></g><mask id=":r14:"><path d="M0 3.51273e-05H32V32H0V3.51273e-05Z" fill="white"></path><path fill-rule="evenodd" clip-rule="evenodd" d="M0.87868 0.87868C2.05025 -0.292893 3.94975 -0.292893 5.12132 0.87868L31.1213 26.8787C32.2929 28.0503 32.2929 29.9497 31.1213 31.1213C29.9497 32.2929 28.0503 32.2929 26.8787 31.1213L0.87868 5.12132C-0.292893 3.94975 -0.292893 2.05025 0.87868 0.87868Z" fill="black"></path></mask></svg>