<svg viewBox="0 0 24 24" xmlns="http://www.w3.org/2000/svg" role="img" aria-hidden="true" class="_1rks9rr1 ejccx3g9 ejccx3u ejccx3g9 ejccx3u"><g color="neutralIconDefault"><g color="currentColor"><path fill="currentColor" fill-rule="evenodd" d="M3.5 16.5v2h14v-2zM3 15a1 1 0 0 0-1 1v3a1 1 0 0 0 1 1h16v-5zM20.5 20v-5H22v5zM21.25 4v1.25a3.74 3.74 0 0 1-1.471 2.978A4.75 4.75 0 0 1 22 12.25v1.25h-1.5v-1.25A3.25 3.25 0 0 0 17.25 9H17V7.5h.5a2.25 2.25 0 0 0 2.25-2.25V4zM14 6.5a2.25 2.25 0 0 0 0 4.5h2.5a2.5 2.5 0 0 1 2.5 2.5h-1.5a1 1 0 0 0-1-1H14A3.75 3.75 0 1 1 14 5z" clip-rule="evenodd"></path></g></g></svg>