<svg viewBox="0 0 24 24" xmlns="http://www.w3.org/2000/svg" class="kirk-icon" role="img" aria-hidden="true" style="height: var(--_1gzv7bh3j); width: var(--_1gzv7bh3j); fill: var(--_1gzv7bhc);"><g color="var(--_1gzv7bhc)"><path fill="currentColor" fill-rule="evenodd" d="M8.01762 2.36844C8.07695 2.15091 8.27453 2 8.5 2h7c.1569 0 .3047.07365.3992.1989.0945.12526.1247.2876.0816.43846L14.1629 9H19.5c.194 0 .3705.11223.4528.28792.0823.17569.0555.38313-.0687.53217L9.88411 21.8201c-.14928.1791-.40257.2313-.61049.1257-.20791-.1056-.31524-.3408-.25869-.5671L10.8596 14H5.5c-.15583 0-.30276-.0727-.39735-.1965-.09459-.1238-.12603-.2847-.08503-.4351l3-10.99996ZM8.8819 3 6.15463 13H11.5c.154 0 .2994.0709.3941.1923.0948.1214.1283.2796.091.429l-1.4699 5.8794L18.4325 10H13.5c-.1569 0-.3047-.07365-.3992-.1989-.0945-.12526-.1247-.2876-.0816-.43846L14.8371 3H8.8819Z" clip-rule="evenodd"></path></g></svg>